[center]
[img]http://img802.imageshack.us/img802/8164/towerheist.jpg[/img]

General
Complete name                            : C:\Tower.Heist.2011.Cam.Ac3.Xvid.ANALOG\T.H.CAM.ANALOG.avi
Format                                   : AVI
Format/Info                              : Audio Video Interleave
File size                                : 1.27 GiB
Duration                                 : 1h 38mn
Overall bit rate                         : 1 841 Kbps
Movie name                               : T.H.CAM.ANALOG
Writing application                      : VirtualDub build 32842/release
Copyright                                : ANALOG
Encoded by                               : Cooperman

Video
ID                                       : 0
Format                                   : MPEG-4 Visual
Format profile                           : Advanced Simple@L5
Format settings, BVOP                    : 1
Format settings, QPel                    : Yes
Format settings, GMC                     : No warppoints
Format settings, Matrix                  : Default (H.263)
Muxing mode                              : Packed bitstream
Codec ID                                 : XVID
Codec ID/Hint                            : XviD
Duration                                 : 1h 38mn
Bit rate                                 : 1 717 Kbps
Width                                    : 704 pixels
Height                                   : 304 pixels
Display aspect ratio                     : 2.35:1
Frame rate                               : 29.970 fps
Color space                              : YUV
Chroma subsampling                       : 4:2:0
Bit depth                                : 8 bits
Scan type                                : Progressive
Compression mode                         : Lossy
Bits/(Pixel*Frame)                       : 0.268
Stream size                              : 1.18 GiB (93%)
Writing library                          : XviD 1.2.1 (UTC 2008-12-04)

Audio
ID                                       : 1
Format                                   : AC-3
Format/Info                              : Audio Coding 3
Mode extension                           : CM (complete main)
Codec ID                                 : 2000
Duration                                 : 1h 38mn
Bit rate mode                            : Constant
Bit rate                                 : 112 Kbps
Channel(s)                               : 2 channels
Channel positions                        : Front: L R
Sampling rate                            : 48.0 KHz
Bit depth                                : 16 bits
Compression mode                         : Lossy
Stream size                              : 78.9 MiB (6%)
Alignment                                : Split accross interleaves
Interleave, duration                     : 33 ms (1.00 video frame)
Interleave, preload duration             : 512 ms
Language                                 : English
Sample                                   : Yes
source file : Tower Heist - Cam - 2011 - HP
THANX HP 
As humans, we perceive the world in analog. Everything we see and hear is a continuous transmission of information to our senses..ANALOG.P.2.P@HUSHMAIL.COM
GREATINGS TO ALL THE P2P PLACES I LURK AT!!

[img]http://img404.imageshack.us/img404/9837/thcamogavisnapshot00254.png[/img]

[img]http://img832.imageshack.us/img832/2563/thcamogavisnapshot00435.png[/img]

[img]http://img823.imageshack.us/img823/6877/thcamogavisnapshot00441.png[/img]

[img]http://img839.imageshack.us/img839/3246/thcamogavisnapshot00504.png[/img]

[img]http://img39.imageshack.us/img39/564/thcamogavisnapshot01322.png[/img]

[img]http://img849.imageshack.us/img849/4291/thcamogavisnapshot01352.png[/img]

[/center]